<svg width="18" height="18" xmlns="http://www.w3.org/2000/svg">

 <g>
  <title>background</title>
  <rect fill="none"  height="20" width="20" y="-1" x="-1"/>
 </g>
 <g>
  <title>Layer 1</title>
  <path stroke="null"  d="m5.223081,0l7.564462,0c2.8817,0 5.223081,2.341381 5.223081,5.223081l0,7.564462a5.223081,5.223081 0 0 1 -5.223081,5.223081l-7.564462,0c-2.8817,0 -5.223081,-2.341381 -5.223081,-5.223081l0,-7.564462a5.223081,5.223081 0 0 1 5.223081,-5.223081m-0.180106,1.801062a3.241912,3.241912 0 0 0 -3.241912,3.241912l0,7.924675c0,1.792057 1.449855,3.241912 3.241912,3.241912l7.924675,0a3.241912,3.241912 0 0 0 3.241912,-3.241912l0,-7.924675c0,-1.792057 -1.449855,-3.241912 -3.241912,-3.241912l-7.924675,0m8.690126,1.350797a1.125664,1.125664 0 0 1 1.125664,1.125664a1.125664,1.125664 0 0 1 -1.125664,1.125664a1.125664,1.125664 0 0 1 -1.125664,-1.125664a1.125664,1.125664 0 0 1 1.125664,-1.125664m-4.727789,1.350797a4.502656,4.502656 0 0 1 4.502656,4.502656a4.502656,4.502656 0 0 1 -4.502656,4.502656a4.502656,4.502656 0 0 1 -4.502656,-4.502656a4.502656,4.502656 0 0 1 4.502656,-4.502656m0,1.801062a2.701594,2.701594 0 0 0 -2.701594,2.701594a2.701594,2.701594 0 0 0 2.701594,2.701594a2.701594,2.701594 0 0 0 2.701594,-2.701594a2.701594,2.701594 0 0 0 -2.701594,-2.701594z"/>
 </g>
</svg>
