<svg width="14" height="20" xmlns="http://www.w3.org/2000/svg">

 <g>
  <title>background</title>
  <rect fill="none" id="canvas_background" height="22" width="16" y="-1" x="-1"/>
 </g>
 <g>
  <title>Layer 1</title>
  <path id="svg_1" d="m7,4.5a2.5,2.5 0 0 1 2.5,2.5a2.5,2.5 0 0 1 -2.5,2.5a2.5,2.5 0 0 1 -2.5,-2.5a2.5,2.5 0 0 1 2.5,-2.5m0,-4.5a7,7 0 0 1 7,7c0,5.25 -7,13 -7,13c0,0 -7,-7.75 -7,-13a7,7 0 0 1 7,-7m0,2a5,5 0 0 0 -5,5c0,1 0,3 5,9.71c5,-6.71 5,-8.71 5,-9.71a5,5 0 0 0 -5,-5z"/>
 </g>
</svg>