<svg width="20" height="20" xmlns="http://www.w3.org/2000/svg">

 <g>
  <title>background</title>
  <rect fill="none" id="canvas_background" height="22" width="22" y="-1" x="-1"/>
 </g>
 <g>
  <title>Layer 1</title>
  <g stroke="null" id="svg_1">
   <g stroke="null" id="svg_2">
    <circle stroke="null" id="svg_3" fill-rule="evenodd" clip-rule="evenodd" fill="#D2D200" r="9.993958" cy="9.993958" cx="9.993958"/>
    <path stroke="null" id="svg_4" fill-rule="evenodd" clip-rule="evenodd" d="m6.034613,8.185052c0,2.063535 1.469546,3.267155 3.267372,3.267155c1.172335,0 1.875822,-0.421919 2.25103,-0.750416c-0.140784,2.219962 -1.281834,3.329726 -2.798308,3.329726c-0.625274,0 -1.187977,-0.140567 -1.484972,-0.265709l-0.343923,1.875822c0.453422,0.109499 1.016125,0.187713 1.641399,0.187713c3.470511,0 5.237051,-2.626456 5.237051,-6.456314c0,-2.92345 -1.06327,-5.00241 -4.033214,-5.00241c-2.26689,0 -3.736437,1.610114 -3.736437,3.814433zm2.204102,-0.234423c0,-0.953771 0.547278,-1.844754 1.610114,-1.844754c1.094338,0 1.688327,1.016342 1.688327,2.063535c0,0.328497 0,0.750416 -0.125142,0.937911c-0.218781,0.343923 -0.765841,0.609849 -1.438044,0.609849c-1.063053,0 -1.735255,-0.734773 -1.735255,-1.766541z"/>
   </g>
  </g>
 </g>
</svg>