<svg width="20" height="20" xmlns="http://www.w3.org/2000/svg">

 <g>
  <title>background</title>
  <rect fill="none"  height="22" width="22" y="-1" x="-1"/>
 </g>
 <g>
  <title>Layer 1</title>
  <g stroke="null" >
   <g stroke="null" >
    <circle stroke="null"  fill-rule="evenodd" clip-rule="evenodd" fill="#6E6E00" r="9.995118" cy="9.995118" cx="9.995118"/>
    <path stroke="null"  fill-rule="evenodd" clip-rule="evenodd" fill="#FFFFFF" d="m13.665281,12.302686c0,-1.547722 -0.922158,-2.454671 -2.14178,-2.689121l0,-0.031289c1.172471,-0.43783 1.78239,-1.313272 1.78239,-2.454671c0,-1.469717 -1.281982,-2.782988 -3.533491,-2.782988c-1.297627,0 -2.360803,0.35939 -3.314251,0.984954l0.76593,1.625728c0.359607,-0.312456 1.031887,-0.797219 2.04813,-0.797219c1.157044,0 1.688523,0.609702 1.688523,1.313272c0,0.84437 -0.67228,1.37585 -1.751101,1.37585l-1.157044,0l0,1.829107l1.141182,0c1.125754,0 2.095281,0.406541 2.095281,1.672878c0,0.93802 -0.797437,1.625945 -2.079419,1.625945c-0.93802,0 -1.704168,-0.359607 -2.173069,-0.719431l-0.84437,1.704385c0.891304,0.50019 1.751101,0.828508 3.173667,0.828508c2.563965,0.000652 4.299422,-1.547288 4.299422,-3.485906z"/>
   </g>
  </g>
 </g>
</svg>
