<svg width="20" height="20" viewBox="0 0 20 20" fill="none" xmlns="http://www.w3.org/2000/svg">
<path d="M10 20C15.5228 20 20 15.5228 20 10C20 4.47715 15.5228 0 10 0C4.47715 0 0 4.47715 0 10C0 15.5228 4.47715 20 10 20Z" fill="#82DC73"/>
<path fill-rule="evenodd" clip-rule="evenodd" d="M13.7939 12.0848C13.7939 10.0204 12.3235 8.81565 10.5248 8.81565C9.35173 8.81565 8.64782 9.23804 8.27238 9.56652C8.41325 7.34544 9.55499 6.23478 11.0722 6.23478C11.698 6.23478 12.2611 6.37544 12.5583 6.50065L12.9024 4.6237C12.4487 4.51413 11.8856 4.43609 11.2598 4.43609C7.78738 4.43609 6.01978 7.06391 6.01978 10.8963C6.01978 13.8213 7.08347 15.9013 10.0554 15.9013C12.3235 15.9013 13.7939 14.2904 13.7939 12.0848ZM11.5887 12.3196C11.5887 13.2737 11.0411 14.1652 9.97738 14.1652C8.88238 14.1652 8.28804 13.1483 8.28804 12.1004C8.28804 11.7722 8.28804 11.3498 8.41325 11.1622C8.63217 10.8178 9.17956 10.552 9.85217 10.552C10.9159 10.552 11.5887 11.287 11.5887 12.3196Z" fill="black"/>
</svg>
