<svg width="20" height="20" xmlns="http://www.w3.org/2000/svg">

 <g>
  <title>background</title>
  <rect fill="none" id="canvas_background" height="22" width="22" y="-1" x="-1"/>
 </g>
 <g>
  <title>Layer 1</title>
  <g stroke="null" id="svg_1">
   <g stroke="null" id="svg_2">
    <circle stroke="null" id="svg_3" fill-rule="evenodd" clip-rule="evenodd" fill="#FF5A00" r="10.006988" cy="10.006988" cx="10.006988"/>
    <path stroke="null" id="svg_4" fill-rule="evenodd" clip-rule="evenodd" d="m13.768093,12.061901c0,-1.659202 -1.220635,-3.334067 -4.241875,-3.490698l-0.313045,-0.015446l0.156414,-2.113215l3.97582,0l0,-1.831496l-5.807099,0l-0.43835,5.744664l1.721855,0.015446c2.034899,0.015663 2.56701,1.111428 2.56701,1.909594c0,1.299386 -1.080102,1.784507 -1.940921,1.784507c-0.939134,0 -1.565223,-0.344371 -2.097552,-0.704405l-0.814047,1.721855c0.861036,0.485121 1.862823,0.798384 3.036686,0.798384c2.520238,0.000218 4.195103,-1.705974 4.195103,-3.819189z"/>
   </g>
  </g>
 </g>
</svg>