<svg width="32" height="32" xmlns="http://www.w3.org/2000/svg">

 <g>
  <title>background</title>
  <rect fill="none"  height="34" width="34" y="-1" x="-1"/>
 </g>
 <g>
  <title>Layer 1</title>
  <g />
  <g />
  <g />
  <g stroke="null" >
   <g stroke="null" >
    <path stroke="null"  d="m32.00004,16.07942c0,-8.881011 -7.439609,-16.08142 -15.95962,-16.08142c-8.839811,0 -16.04042,7.200409 -16.04042,16.08142c0,8.799811 7.200609,15.91902 16.04042,15.91902c8.839811,0 15.95962,-7.079209 15.95962,-15.91902zm-2.200003,0c0,7.520009 -6.198808,13.799617 -13.759817,13.799617c-7.600409,0 -13.840617,-6.200208 -13.840617,-13.799617c0,-7.64201 6.240208,-13.960417 13.840617,-13.960417c7.561009,0.0002 13.759817,6.360208 13.759817,13.960417zm-5.839607,7.079809l0,-13.960817c0,-0.800201 -0.439401,-1.640202 -1.759402,-1.640202c-1.000001,0 -1.400402,0.439801 -1.840802,1.320202l-4.319805,9.000611l-0.041,0l-4.358005,-9.000811c-0.441001,-0.880201 -0.841601,-1.320202 -1.841402,-1.320202c-1.320402,0 -1.759802,0.840001 -1.759802,1.640202l0,13.960817c0,0.759801 0.600401,1.200401 1.320202,1.200401c0.641201,0 1.359602,-0.440601 1.359602,-1.200401l0,-10.400013l0.0406,0l3.960205,8.07961c0.2794,0.559801 0.639401,0.879801 1.279002,0.879801c0.640801,0 1.000401,-0.3202 1.280202,-0.879801l3.961605,-8.07961l0.0396,0l0,10.400213c0,0.759801 0.719001,1.200401 1.360202,1.200401c0.718401,0 1.319002,-0.440601 1.319002,-1.200401z" fill="#0A0082"/>
   </g>
  </g>
 </g>
</svg>
