<svg width="20" height="20" xmlns="http://www.w3.org/2000/svg">

 <g>
  <title>background</title>
  <rect fill="none"  height="22" width="22" y="-1" x="-1"/>
 </g>
 <g>
  <title>Layer 1</title>
  <g stroke="null" >
   <g stroke="null" >
    <circle stroke="null"  fill-rule="evenodd" clip-rule="evenodd" fill="#00643C" r="10" cy="10" cx="10"/>
    <path stroke="null"  fill-rule="evenodd" clip-rule="evenodd" fill="#FFFFFF" d="m7.856521,15.576521l0,-11.043043l-1.92413,0c-0.500435,0.391087 -1.689348,1.126304 -2.971956,1.736087l-0.672609,0.312826l0.75087,1.689348l0.578913,-0.297174c0.406739,-0.203478 1.517174,-0.782174 1.892609,-1.079348l0,8.681521l2.346304,0l0,-0.000217z"/>
    <path stroke="null"  fill-rule="evenodd" clip-rule="evenodd" fill="#FFFFFF" d="m16.857173,15.576521l0,-1.84587l-4.551956,0c0.140652,-0.641087 1.251304,-1.56413 1.814565,-2.080217c1.329348,-1.204348 2.533913,-2.064783 2.533913,-3.957391c0,-2.252391 -1.830217,-3.347174 -3.769782,-3.347174c-1.48587,0 -2.471304,0.438043 -3.535,1.36087l1.157609,1.532826c0.26587,-0.297174 0.938261,-1.00087 1.908043,-1.00087c1.204565,0 1.830217,0.766304 1.830217,1.720435c0,1.063913 -0.797609,1.830217 -1.533043,2.471522c-1.470435,1.282609 -2.737174,2.408913 -3.018696,3.691304l0,1.454783l7.16413,0l0,-0.000217z"/>
   </g>
  </g>
 </g>
</svg>
