<svg width="20" height="20" xmlns="http://www.w3.org/2000/svg">

 <g>
  <title>background</title>
  <rect fill="none"  height="22" width="22" y="-1" x="-1"/>
 </g>
 <g>
  <title>Layer 1</title>
  <g stroke="null" >
   <g stroke="null" >
    <circle stroke="null"  fill-rule="evenodd" clip-rule="evenodd" fill="#D282BE" r="9.971297" cy="9.971297" cx="9.971297"/>
    <path stroke="null"  fill-rule="evenodd" clip-rule="evenodd" d="m13.809812,12.455667c0,-1.45039 -0.88918,-2.323962 -1.902567,-2.807354c1.029211,-0.624073 1.559424,-1.419392 1.559424,-2.44882c0,-1.887393 -1.606463,-2.838785 -3.540461,-2.838785c-1.887393,0 -3.540677,1.26332 -3.540677,3.088284c0,1.138462 0.592642,1.809357 1.54425,2.401782c-1.060642,0.546037 -1.887393,1.403785 -1.887393,2.869783c0,1.668892 1.388178,3.135106 3.836998,3.135106c2.261533,0 3.930425,-1.309925 3.930425,-3.399995zm-2.44882,-5.115925c0,0.686285 -0.62364,1.325749 -1.200674,1.590855c-0.701893,-0.296321 -1.606679,-0.779929 -1.606679,-1.684499c0,-0.764322 0.546037,-1.294751 1.404002,-1.294751c0.904353,0.000217 1.403352,0.62429 1.403352,1.388395zm0.17168,5.287388c0,0.873356 -0.577035,1.606679 -1.62207,1.606679c-1.060642,0 -1.653284,-0.857965 -1.653284,-1.762752c0,-0.857748 0.717717,-1.575248 1.435,-1.855962c0.935785,0.468001 1.840355,1.013821 1.840355,2.012034z"/>
   </g>
  </g>
 </g>
</svg>
