<svg width="20" height="20" viewBox="0 0 20 20" fill="none" xmlns="http://www.w3.org/2000/svg">
<path d="M10 20C15.5228 20 20 15.5228 20 10C20 4.47715 15.5228 0 10 0C4.47715 0 0 4.47715 0 10C0 15.5228 4.47715 20 10 20Z" fill="#640082"/>
<path fill-rule="evenodd" clip-rule="evenodd" d="M17.3241 13.2771V11.5565H15.9633V4.53345H13.1478L8.86218 11.228V13.2771H13.8363V15.5765H15.9635V13.2771H17.3241ZM13.8361 11.5565H10.755L13.0074 8.02149C13.4452 7.33323 13.7581 6.66062 13.8048 6.4728H13.8363V11.5565H13.8361Z" fill="white"/>
<path fill-rule="evenodd" clip-rule="evenodd" d="M7.65112 15.5765V4.53345H5.72699C5.22655 4.92453 4.03764 5.65975 2.75503 6.26975L2.08264 6.58236L2.83351 8.27171L3.41221 7.97453C3.81895 7.77106 4.92938 7.19236 5.30503 6.89519V15.5765H7.65112Z" fill="white"/>
</svg>
