<svg width="20" height="20" viewBox="0 0 20 20" fill="none" xmlns="http://www.w3.org/2000/svg">
<path d="M10 20C15.5228 20 20 15.5228 20 10C20 4.47715 15.5228 0 10 0C4.47715 0 0 4.47715 0 10C0 15.5228 4.47715 20 10 20Z" fill="#82C8E6"/>
<path fill-rule="evenodd" clip-rule="evenodd" d="M7.76848 15.5765V4.53348H5.84457C5.34391 4.92457 4.15522 5.65978 2.87261 6.26957L2.2 6.58239L2.95087 8.27174L3.52978 7.97456C3.93652 7.77109 5.04696 7.19239 5.42239 6.89522V15.5767H7.76848V15.5765Z" fill="black"/>
<path fill-rule="evenodd" clip-rule="evenodd" d="M16.7848 12.3074C16.7848 10.7587 15.862 9.85152 14.6417 9.61696V9.58543C15.815 9.14739 16.425 8.27152 16.425 7.12978C16.425 5.65935 15.1424 4.34543 12.8898 4.34543C11.5915 4.34543 10.528 4.705 9.57391 5.33065L10.3404 6.95739C10.7002 6.64457 11.3728 6.15956 12.3896 6.15956C13.547 6.15956 14.0789 6.76978 14.0789 7.47348C14.0789 8.31826 13.4063 8.85 12.327 8.85H11.1696V10.6802H12.3113C13.4378 10.6802 14.4076 11.087 14.4076 12.3537C14.4076 13.2924 13.6098 13.9804 12.3272 13.9804C11.3889 13.9804 10.6222 13.6209 10.1528 13.2609L9.30826 14.9659C10.2 15.4665 11.0602 15.7948 12.4835 15.7948C15.0485 15.7954 16.7848 14.247 16.7848 12.3074Z" fill="black"/>
</svg>
