<svg width="20" height="20" xmlns="http://www.w3.org/2000/svg">

 <g>
  <title>background</title>
  <rect fill="none"  height="22" width="22" y="-1" x="-1"/>
 </g>
 <g>
  <title>Layer 1</title>
  <g stroke="null" >
   <g stroke="null" >
    <circle stroke="null"  fill-rule="evenodd" clip-rule="evenodd" fill="#DC9600" r="9.998951" cy="9.998951" cx="9.998951"/>
    <path stroke="null"  fill-rule="evenodd" clip-rule="evenodd" d="m17.156896,10.085029c0,-2.549515 -0.65667,-5.771351 -3.988277,-5.771351c-3.331607,0 -4.050879,3.221836 -4.050879,5.771351s0.656888,5.771351 3.988277,5.771351s4.050879,-3.221836 4.050879,-5.771351zm-2.39301,0c0,1.094885 -0.062602,3.925892 -1.626568,3.925892s-1.642219,-2.815357 -1.642219,-3.925892c0,-1.126186 0.046952,-3.910025 1.642219,-3.910025c1.579617,0 1.626568,2.752755 1.626568,3.910025z"/>
    <path stroke="null"  fill-rule="evenodd" clip-rule="evenodd" d="m7.71919,15.574888l0,-11.041885l-1.923929,0c-0.500382,0.391046 -1.689171,1.126186 -2.971645,1.735905l-0.672538,0.312793l0.750791,1.689171l0.578635,-0.297143c0.406696,-0.203457 1.517015,-0.782092 1.892628,-1.079235l0,8.680611l2.346058,0l0,-0.000217z"/>
   </g>
  </g>
 </g>
</svg>
