<svg width="20.000000000000004" height="20.000000000000004" xmlns="http://www.w3.org/2000/svg">

 <g>
  <title>background</title>
  <rect fill="none" id="canvas_background" height="22" width="22" y="-1" x="-1"/>
 </g>
 <g>
  <title>Layer 1</title>
  <g stroke="null" id="svg_1">
   <g stroke="null" id="svg_2">
    <circle stroke="null" id="svg_3" fill-rule="evenodd" clip-rule="evenodd" fill="#0055C8" r="10.010558" cy="10.010558" cx="10.010558"/>
    <path stroke="null" id="svg_4" fill-rule="evenodd" clip-rule="evenodd" fill="#FFFFFF" d="m13.624805,15.594273l0,-1.847601l-4.556545,0c0.141018,-0.641981 1.252625,-1.565782 1.816481,-2.082631c1.330969,-1.205619 2.536588,-2.066745 2.536588,-3.96157c0,-2.254769 -1.83215,-3.350708 -3.773545,-3.350708c-1.487656,0 -2.474131,0.438506 -3.53895,1.362306l1.158831,1.534662c0.26615,-0.297488 0.939469,-1.002144 1.910276,-1.002144c1.205619,0 1.831932,0.767113 1.831932,1.722469c0,1.064819 -0.798668,1.83215 -1.534444,2.473914c-1.471987,1.283963 -2.740281,2.411456 -3.0221,3.695419l0,1.456101l7.171477,0l0,-0.000218z"/>
   </g>
  </g>
 </g>
</svg>