<svg width="20" height="20" xmlns="http://www.w3.org/2000/svg">

 <g>
  <title>background</title>
  <rect fill="none" id="canvas_background" height="22" width="22" y="-1" x="-1"/>
 </g>
 <g>
  <title>Layer 1</title>
  <g id="Temps_d_x27_attente"/>
  <g id="Calque_5"/>
  <g id="Ardoise"/>
  <g stroke="null" id="Logos">
   <g stroke="null" id="svg_1">
    <path stroke="null" id="svg_2" d="m20.000063,10.048907c0,-5.550642 -4.649765,-10.050907 -9.974781,-10.050907c-5.524892,0 -10.025281,4.500264 -10.025281,10.050907c0,5.499892 4.500389,9.949406 10.025281,9.949406c5.524892,0 9.974781,-4.424514 9.974781,-9.949406zm-1.375004,0c0,4.700015 -3.874262,8.624777 -8.599902,8.624777c-4.750265,0 -8.650402,-3.875137 -8.650402,-8.624777c0,-4.776265 3.900137,-8.725277 8.650402,-8.725277c4.72564,0.000125 8.599902,3.975137 8.599902,8.725277zm-3.649761,4.424889l0,-8.725527c0,-0.500127 -0.274626,-1.025128 -1.099628,-1.025128c-0.625002,0 -0.875253,0.274876 -1.150504,0.825128l-2.699883,5.625393l-0.025625,0l-2.723759,-5.625518c-0.275626,-0.550127 -0.526002,-0.825128 -1.150879,-0.825128c-0.825253,0 -1.099878,0.525002 -1.099878,1.025128l0,8.725527c0,0.474876 0.375251,0.750252 0.825128,0.750252c0.400751,0 0.849753,-0.275376 0.849753,-0.750252l0,-6.50002l0.025375,0l2.475133,5.049766c0.174626,0.349876 0.399626,0.549877 0.799378,0.549877c0.400501,0 0.625252,-0.200126 0.800128,-0.549877l2.476008,-5.049766l0.02475,0l0,6.500145c0,0.474876 0.449376,0.750252 0.850128,0.750252c0.449001,0 0.824378,-0.275376 0.824378,-0.750252z" fill="#0A0082"/>
   </g>
  </g>
 </g>
</svg>