<svg width="20" height="20" viewBox="0 0 20 20" fill="none" xmlns="http://www.w3.org/2000/svg">
<path fill-rule="evenodd" clip-rule="evenodd" d="M10 20C4.47283 20 0 15.5354 0 10.018C0 4.46457 4.47283 0 10 0C15.5272 0 20 4.46457 20 10.018C20 15.5354 15.5274 20 10 20ZM10 1.48826C5.30913 1.48826 1.49087 5.29935 1.49087 10.018C1.49087 14.7007 5.30891 18.5117 10 18.5117C14.6909 18.5117 18.5091 14.7007 18.5091 10.018C18.5093 5.29935 14.6909 1.48826 10 1.48826Z" fill="#FF1400"/>
<path fill-rule="evenodd" clip-rule="evenodd" d="M14.3716 14.8594L11.0466 5.51111H8.8081L5.49658 14.8594H7.53658L8.11941 13.0876H11.5766L12.1596 14.8594H14.3716ZM11.0733 11.5405H8.63593L9.60289 8.56524C9.72202 8.19524 9.84136 7.70589 9.84136 7.3885H9.86788C9.86788 7.67959 9.97375 8.16872 10.1064 8.56524L11.0733 11.5405Z" fill="#FF1400"/>
</svg>
