<svg width="20" height="20" viewBox="0 0 20 20" fill="none" xmlns="http://www.w3.org/2000/svg">
<path fill-rule="evenodd" clip-rule="evenodd" d="M9.99706 20C4.47621 20 0 15.5348 0 10.013C0 4.46685 4.47621 0 9.99706 0C15.5179 0 20 4.46685 20 10.013C20 15.5352 15.5217 20 9.99706 20V20ZM9.99706 1.49132C5.30293 1.49132 1.48927 5.29801 1.48927 10.013C1.48927 14.7003 5.30293 18.5112 9.99706 18.5112C14.6912 18.5112 18.5078 14.7003 18.5078 10.013C18.5078 5.29801 14.6954 1.49132 9.99706 1.49132" fill="#35A748"/>
<path fill-rule="evenodd" clip-rule="evenodd" d="M18.4956 9.99999C18.4956 14.6873 14.6886 18.4873 9.99323 18.4873C5.29784 18.4873 1.49048 14.6873 1.49048 9.99999C1.49048 5.31267 5.29742 1.51227 9.99281 1.51227C14.6882 1.51227 18.4951 5.31225 18.4951 10.0004" fill="white"/>
<path fill-rule="evenodd" clip-rule="evenodd" d="M15.0153 9.79044C15.0153 5.39778 11.1328 5.33197 9.34122 5.33197H6.6167V14.6672H9.24759C12.1111 14.6672 15.0153 13.8746 15.0153 9.79044ZM12.8811 9.92079C12.8811 12.3707 11.5027 13.0585 9.70315 13.0585H8.68875V6.96161H9.63135C10.9099 6.96161 12.8811 7.30657 12.8811 9.92079" fill="#35A748"/>
</svg>
