<svg width="20" height="20" viewBox="0 0 20 20" fill="none" xmlns="http://www.w3.org/2000/svg">
<path d="M20 10.0495C20.0003 4.5 15.3506 0 10.0254 0C4.49938 0 -0.000624935 4.50025 6.50963e-08 10.0498C-0.000624935 15.5251 4.49938 20.0004 10.0254 20C15.5499 20.0004 20 15.575 20 10.0495ZM18.6249 10.0495C18.6249 14.7501 14.7508 18.625 10.0259 18.625C5.27475 18.625 1.37538 14.7741 1.37538 10.0498C1.37538 5.27488 5.27488 1.34962 10.0253 1.34987C14.7503 1.34975 18.6246 5.3 18.6249 10.0495ZM17.1752 8.44938C17.1752 7.10013 16.1754 6.47475 15.2002 6.47475H13.3251C12.9755 6.47475 12.7756 6.75 12.7759 7.05025V12.9246C12.7761 13.2744 13.125 13.45 13.45 13.45C13.8249 13.45 14.1256 13.2744 14.1256 12.9246V10.6504H14.7006L15.8256 13.1748C15.9251 13.375 16.1001 13.45 16.3008 13.45C16.7 13.45 17.2756 13.0743 17.0505 12.625L15.9755 10.375C16.6251 10.0498 17.1752 9.47538 17.1752 8.44938ZM12.1001 12.7996C12.1001 12.5004 11.9005 12.1745 11.5501 12.1745L9.65063 12.1748L9.65125 10.4497H11.2249C11.5749 10.4497 11.7751 10.1499 11.7751 9.87512C11.7751 9.57475 11.5754 9.29975 11.2249 9.29975L9.65125 9.29937L9.65063 7.72487L11.4004 7.72463C11.7505 7.72463 11.95 7.37487 11.95 7.09987C11.95 6.8 11.7502 6.4745 11.4001 6.4745H8.85025C8.50038 6.4745 8.3 6.75012 8.3 7.04975L8.29988 12.8993C8.3 13.2498 8.651 13.425 8.97488 13.425H11.55C11.9005 13.4249 12.1001 13.0748 12.1001 12.7996ZM7.50025 8.44938C7.50025 7.10013 6.50013 6.47475 5.52513 6.47475H3.65075C3.30087 6.47475 3.10087 6.75 3.10037 7.05L3.10063 12.9248C3.10063 13.2745 3.45037 13.4501 3.77575 13.4501C4.15037 13.4501 4.45113 13.2745 4.45113 12.9248V10.65H5.02563L6.15013 13.1748C6.25013 13.3753 6.42512 13.4496 6.62525 13.45C7.025 13.4496 7.6005 13.0746 7.37512 12.6246L6.30075 10.375C6.94962 10.0498 7.5005 9.47513 7.50025 8.44938ZM15.7751 8.60013C15.7747 9.44988 14.9996 9.65037 14.5253 9.65H14.1256L14.1251 7.62463H14.6003C15.2251 7.62463 15.7751 7.89975 15.7751 8.60013ZM6.0995 8.60013C6.09988 9.44988 5.32512 9.65 4.85025 9.65038L4.45025 9.65L4.45113 7.62463L4.92462 7.62425C5.55012 7.62462 6.09988 7.89975 6.0995 8.60013Z" fill="#0A0082"/>
</svg>
